Coordinates
version=1
nRows=10
nColumns=40
inDegrees=yes

Units are S.I. units (second, meters, Newtons, ...)
Angles are in degrees.

endheader
time	pelvis_tilt	pelvis_list	pelvis_rotation	pelvis_tx	pelvis_ty	pelvis_tz	hip_flexion_r	hip_adduction_r	hip_rotation_r	knee_angle_r	knee_angle_r_beta	ankle_angle_r	subtalar_angle_r	mtp_angle_r	hip_flexion_l	hip_adduction_l	hip_rotation_l	knee_angle_l	knee_angle_l_beta	ankle_angle_l	subtalar_angle_l	mtp_angle_l	lumbar_extension	lumbar_bending	lumbar_rotation	arm_flex_r	arm_add_r	arm_rot_r	elbow_flex_r	pro_sup_r	wrist_flex_r	wrist_dev_r	arm_flex_l	arm_add_l	arm_rot_l	elbow_flex_l	pro_sup_l	wrist_flex_l	wrist_dev_l
     10.46500000	     -3.10978466	     -5.51516497	     -3.69581756	      1.02633841	      0.92969528	      0.50095045	     16.09875789	      3.65708892	    -10.60333065	     17.23421059	     17.23421059	      5.99656971	     -0.93263497	     -4.69935854	      4.58122044	    -10.37823020	     -9.01361323	     33.83241403	     33.83241403	     15.85029771	     -8.81508702	     -8.32347258	     -9.68654473	      6.22296599	      0.23663284	      2.73938981	    -12.73836988	     -7.62545885	     40.84273688	     45.85512717	      0.00000000	      0.00000000	     12.24277631	    -11.52369707	     -7.66913897	     41.37808838	     46.67395550	      0.00000000	      0.00000000
     10.47828571	     -3.05644043	     -5.58070497	     -3.17524494	      1.02716455	      0.92992923	      0.50316722	     15.51815358	      3.78759758	    -11.04298284	     17.09875470	     17.09875470	      6.40792233	     -0.85934910	     -4.84325190	      6.40412027	    -10.98240937	     -7.83433048	     37.59801853	     37.59801853	     14.20598534	     -9.84142046	     -9.44293207	     -9.54372666	      6.31056315	     -0.12709616	      4.06874632	    -12.92701626	     -7.71162531	     42.09626994	     45.81878858	      0.00000000	      0.00000000	     11.35632249	    -11.30563115	     -7.39119701	     39.82837133	     46.62261145	      0.00000000	      0.00000000
     10.49157143	     -2.91945933	     -5.50112341	     -2.69833311	      1.02769760	      0.93013891	      0.50519274	     15.02504675	      3.69518713	    -11.59742176	     17.25228582	     17.25228582	      6.79806398	     -0.60393186	     -5.13192055	      8.08079834	    -11.24052284	     -6.50222223	     40.96289346	     40.96289346	     10.76238207	    -12.27306042	    -13.51190796	     -9.52273492	      6.22313515	      0.08412374	      4.49320668	    -13.52660949	     -7.11687221	     45.53861395	     45.65587361	      0.00000000	      0.00000000	     11.98095277	    -10.92685547	     -6.43316373	     35.35535679	     46.49803674	      0.00000000	      0.00000000
     10.50485714	     -2.82200596	     -5.61914308	     -2.19836203	      1.02804666	      0.93011091	      0.50730002	     14.48181636	      3.88460763	    -12.01805447	     17.20926313	     17.20926313	      7.15971044	     -0.60001825	     -5.21915187	     10.11477784	    -11.79128467	     -5.24849664	     44.92795817	     44.92795817	      8.89527623	    -13.11980361	    -13.88570060	     -9.50842033	      6.31966348	      0.11990722	      5.76232139	    -13.88052588	     -7.21455336	     46.84044972	     45.61954922	      0.00000000	      0.00000000	     11.22185260	    -10.64158639	     -6.17874147	     34.31563178	     46.45125650	      0.00000000	      0.00000000
     10.51814286	     -2.68161775	     -5.74690767	     -1.68743703	      1.02820793	      0.92999576	      0.50926196	     13.98983339	      4.05632036	    -12.47573130	     17.33257783	     17.33257783	      7.58944169	     -0.60246618	     -5.34876012	     12.14321541	    -12.24376574	     -3.93968393	     48.76825147	     48.76825147	      7.01340271	    -13.95156003	    -13.68951530	     -9.56834405	      6.44255406	      0.13313390	      7.11838576	    -14.24065769	     -7.26434230	     48.21586652	     45.57910494	      0.00000000	      0.00000000	     10.47297465	    -10.36557482	     -5.94001536	     33.25090082	     46.40656450	      0.00000000	      0.00000000
     10.53142857	     -2.55500767	     -5.69784107	     -1.22402976	      1.02804878	      0.92975704	      0.51103470	     13.71303620	      3.96792276	    -12.98784891	     17.81083664	     17.81083664	      8.21042920	     -0.40766542	     -5.31293087	     14.23287851	    -12.31783983	     -2.56972829	     52.52318691	     52.52318691	      5.86729857	    -14.61089794	    -11.28454656	     -9.67592786	      6.34733797	      0.34108610	      7.73422682	    -14.97901267	     -6.65470801	     51.86390875	     45.42493599	      0.00000000	      0.00000000	     10.41873626	    -10.08264106	     -5.16548665	     30.75576529	     46.29970029	      0.00000000	      0.00000000
     10.54471429	     -2.41462353	     -5.86837032	     -0.78856256	      1.02784833	      0.92959751	      0.51292839	     13.23705506	      4.21641243	    -13.33869265	     17.89375400	     17.89375400	      8.54121085	     -0.49579969	     -5.35118469	     16.17899065	    -12.74702490	     -1.51703351	     55.78755146	     55.78755146	      4.29308344	    -15.12007558	    -10.58637955	     -9.79619504	      6.45596167	      0.70793108	      9.24496311	    -15.48786929	     -6.82291643	     52.86456492	     45.40562254	      0.00000000	      0.00000000	      9.72708002	     -9.74435486	     -5.02000498	     30.21890862	     46.26738331	      0.00000000	      0.00000000
     10.55800000	     -2.42264265	     -5.79737825	     -0.35057744	      1.02735416	      0.92920986	      0.51452247	     13.12191063	      4.13033093	    -13.71255459	     18.35742765	     18.35742765	      9.28168928	     -0.42279493	     -4.77838092	     18.47324934	    -12.69354077	     -0.35796890	     59.21143858	     59.21143858	      5.41150316	    -14.57475328	     -3.50576562	     -9.79650353	      6.34199761	      1.04555481	      9.63967542	    -16.27127170	     -6.35551083	     56.78015610	     45.26264036	      0.00000000	      0.00000000	      9.32695806	     -9.52224808	     -4.12535179	     28.67956083	     46.13542822	      0.00000000	      0.00000000
     10.57128571	     -2.42015899	     -5.80735630	      0.06735056	      1.02685541	      0.92897614	      0.51618921	     12.84908702	      4.21497772	    -13.99081273	     18.49835097	     18.49835097	      9.69241749	     -0.68023529	     -4.77438446	     20.35821234	    -12.81639998	      0.45234645	     61.50197173	     61.50197173	      4.47237119	    -15.42810146	     -2.29342868	     -9.78378543	      6.22201793	      1.01433794	     11.31858345	    -16.46203882	     -6.62856090	     58.03655442	     45.24168345	      0.00000000	      0.00000000	      8.36449275	     -9.35510913	     -3.93815076	     28.12555198	     46.09223206	      0.00000000	      0.00000000
     10.58457143	     -2.33176998	     -5.74478569	      0.46301931	      1.02623728	      0.92899425	      0.51758297	     12.53236526	      4.18586805	    -14.16191024	     18.73953676	     18.73953676	     10.26347669	     -0.69722290	     -4.24711739	     22.16867680	    -12.78619171	      1.18797964	     63.57075055	     63.57075055	      5.52191118	    -15.44524925	      3.09850337	     -9.93197097	      6.14952598	      1.38174190	     12.36164501	    -17.08180397	     -6.58914661	     60.56949588	     45.17778459	      0.00000000	      0.00000000	      7.45908756	     -9.16877337	     -3.31804371	     28.08683047	     45.98933247	      0.00000000	      0.00000000
